<svg width="50" height="50" viewBox="0 0 50 50" fill="none" xmlns="http://www.w3.org/2000/svg">
<path d="M25.0007 14.5828C29.4209 14.5828 33.6602 16.3388 36.7858 19.4644C39.9114 22.59 41.6673 26.8292 41.6673 31.2495C41.6673 35.6698 39.9114 39.909 36.7858 43.0346C33.6602 46.1602 29.4209 47.9161 25.0007 47.9161C20.5804 47.9161 16.3411 46.1602 13.2155 43.0346C10.0899 39.909 8.33398 35.6698 8.33398 31.2495C8.33398 26.8292 10.0899 22.59 13.2155 19.4644C16.3411 16.3388 20.5804 14.5828 25.0007 14.5828ZM25.0007 21.8745L22.2465 27.4578L16.084 28.3536L20.5423 32.6974L19.4902 38.8349L25.0007 35.937L30.5111 38.8328L29.459 32.6974L33.9173 28.3516L27.7548 27.4557L25.0007 21.8745ZM27.084 4.16406L37.5007 4.16615V10.4161L34.6611 12.787C32.3052 11.5497 29.7322 10.78 27.084 10.5203V4.16406ZM22.9173 4.16406V10.5182C20.2698 10.7782 17.6975 11.5479 15.3423 12.7849L12.5007 10.4161V4.16615L22.9173 4.16406Z" fill="white"/>
</svg>
