<svg width="50" height="50" viewBox="0 0 50 50" fill="none" xmlns="http://www.w3.org/2000/svg">
<path d="M14.5833 43.75V39.5833H22.9167V33.125C21.2153 32.7431 19.6965 32.0229 18.3604 30.9646C17.0243 29.9062 16.0431 28.5778 15.4167 26.9792C12.8125 26.6667 10.634 25.5299 8.88125 23.5687C7.12847 21.6076 6.25139 19.3069 6.25 16.6667V14.5833C6.25 13.4375 6.65833 12.4569 7.475 11.6417C8.29167 10.8264 9.27222 10.4181 10.4167 10.4167H14.5833V6.25H35.4167V10.4167H39.5833C40.7292 10.4167 41.7104 10.825 42.5271 11.6417C43.3437 12.4583 43.7514 13.4389 43.75 14.5833V16.6667C43.75 19.3056 42.8729 21.6062 41.1187 23.5687C39.3646 25.5312 37.1861 26.6681 34.5833 26.9792C33.9583 28.5764 32.9778 29.9049 31.6417 30.9646C30.3056 32.0243 28.7861 32.7444 27.0833 33.125V39.5833H35.4167V43.75H14.5833ZM14.5833 22.5V14.5833H10.4167V16.6667C10.4167 17.9861 10.7986 19.1757 11.5625 20.2354C12.3264 21.2951 13.3333 22.05 14.5833 22.5ZM35.4167 22.5C36.6667 22.0486 37.6736 21.2931 38.4375 20.2333C39.2014 19.1736 39.5833 17.9847 39.5833 16.6667V14.5833H35.4167V22.5Z" fill="#1B2634"/>
</svg>
