<svg width="50" height="50" viewBox="0 0 50 50" fill="none" xmlns="http://www.w3.org/2000/svg">
<path d="M25.0013 4.16602C21.1336 4.16602 17.4242 5.70247 14.6893 8.43737C11.9544 11.1723 10.418 14.8816 10.418 18.7493C10.418 23.7077 12.8971 28.0618 16.668 30.7077V35.416C16.668 35.9685 16.8875 36.4985 17.2782 36.8892C17.6689 37.2799 18.1988 37.4993 18.7513 37.4993H31.2513C31.8038 37.4993 32.3337 37.2799 32.7244 36.8892C33.1151 36.4985 33.3346 35.9685 33.3346 35.416V30.7077C37.1055 28.0618 39.5846 23.7077 39.5846 18.7493C39.5846 14.8816 38.0482 11.1723 35.3133 8.43737C32.5784 5.70247 28.869 4.16602 25.0013 4.16602ZM18.7513 43.7493C18.7513 44.3019 18.9708 44.8318 19.3615 45.2225C19.7522 45.6132 20.2821 45.8327 20.8346 45.8327H29.168C29.7205 45.8327 30.2504 45.6132 30.6411 45.2225C31.0318 44.8318 31.2513 44.3019 31.2513 43.7493V41.666H18.7513V43.7493Z" fill="#1B2634"/>
</svg>
