<svg width="50" height="50" viewBox="0 0 50 50" fill="none" xmlns="http://www.w3.org/2000/svg">
<path d="M37.5532 8.13008C37.3967 7.85896 37.1812 7.62658 36.9226 7.45021C36.664 7.27384 36.369 7.15801 36.0595 7.11133C35.2053 7.11133 34.2824 7.78633 33.2949 8.51341C33.0504 8.69397 32.8025 8.87313 32.5511 9.05091C31.422 9.83633 30.1261 10.5509 29.0178 10.7759C27.2886 11.1301 25.3032 10.6322 23.7115 9.92174C21.899 9.08633 20.8511 11.0092 20.0407 12.4967C19.8886 12.7738 19.7449 13.0384 19.6074 13.2655C19.0032 14.2509 18.2428 15.4259 17.3782 16.6113C17.0332 16.5796 16.6857 16.6344 16.3672 16.7707C16.0487 16.9071 15.7693 17.1208 15.5542 17.3923C15.3391 17.6639 15.1951 17.9849 15.1352 18.3261C15.0754 18.6674 15.1016 19.0182 15.2115 19.3467C14.5699 20.1342 13.9608 20.8891 13.3845 21.6113C12.9847 21.4985 12.5604 21.5077 12.1659 21.6378C11.7715 21.7679 11.4249 22.013 11.1708 22.3415C10.9166 22.67 10.7664 23.067 10.7396 23.4814C10.7127 23.8959 10.8103 24.309 11.0199 24.6676C8.78653 27.653 7.24903 30.0801 6.36153 32.2405C5.61153 34.0738 5.2907 35.7884 5.43029 37.5363C5.56987 39.2592 6.14279 40.8634 6.94487 42.4863C8.03237 44.6842 10.699 45.2863 12.6511 44.1592L43.3219 26.4509C44.2789 25.8984 44.9772 24.9883 45.2632 23.9209C45.5492 22.8535 45.3995 21.7162 44.847 20.7592L43.8053 18.9551L31.1761 26.2467C30.6979 26.5187 30.1315 26.5904 29.6006 26.4462C29.0696 26.3021 28.6173 25.9538 28.3422 25.4774C28.0671 25.0009 27.9917 24.435 28.1323 23.9032C28.2729 23.3713 28.6182 22.9166 29.0928 22.6384L41.722 15.3467L37.5532 8.13008Z" fill="white"/>
</svg>
