<svg width="46" height="46" viewBox="0 0 46 46" fill="none" xmlns="http://www.w3.org/2000/svg">
<path d="M3.83203 8.85757C3.83207 8.66794 3.88837 8.48259 3.99379 8.32497C4.09922 8.16735 4.24903 8.04455 4.42428 7.97212C4.59953 7.89968 4.79232 7.88086 4.97827 7.91804C5.16421 7.95522 5.33495 8.04673 5.46886 8.18098L16.988 19.7001C17.2295 19.9416 17.3139 20.2943 17.2755 20.6336C17.1819 21.4247 17.337 22.2254 17.7194 22.9243C18.1019 23.6232 18.6925 24.1856 19.4093 24.5332C20.1261 24.8809 20.9335 24.9966 21.7191 24.8643C22.5047 24.732 23.2295 24.3581 23.7929 23.7948C24.3562 23.2315 24.73 22.5066 24.8624 21.721C24.9947 20.9354 24.879 20.1281 24.5313 19.4113C24.1836 18.6945 23.6212 18.1038 22.9223 17.7214C22.2234 17.339 21.4228 17.1838 20.6316 17.2775C20.4644 17.3024 20.2938 17.2895 20.1323 17.2397C19.9707 17.1899 19.8224 17.1046 19.6982 16.99L8.17903 5.47082C8.04489 5.33702 7.95342 5.16646 7.91618 4.98069C7.87894 4.79492 7.89759 4.60228 7.96979 4.42712C8.04199 4.25195 8.1645 4.10211 8.32182 3.99654C8.47915 3.89097 8.66423 3.8344 8.8537 3.83398H21.082C23.8513 3.83337 26.58 4.49949 29.0375 5.77603C31.4951 7.05258 33.6091 8.90202 35.201 11.168C36.7929 13.4341 37.8158 16.05 38.1833 18.7948C38.5508 21.5396 38.2521 24.3325 37.3124 26.9375L41.6057 31.2289C41.965 31.5883 42.1669 32.0758 42.1669 32.584C42.1669 33.0922 41.965 33.5796 41.6057 33.9391L33.939 41.6057C33.761 41.7839 33.5496 41.9253 33.317 42.0218C33.0843 42.1182 32.8349 42.1679 32.583 42.1679C32.3311 42.1679 32.0817 42.1182 31.849 42.0218C31.6163 41.9253 31.4049 41.7839 31.2269 41.6057L26.9355 37.3143C24.3306 38.254 21.5376 38.5528 18.7928 38.1853C16.0481 37.8178 13.4321 36.7948 11.1661 35.2029C8.90007 33.6111 7.05062 31.497 5.77408 29.0395C4.49753 26.582 3.83141 23.8533 3.83203 21.084V8.85757Z" fill="#1B2634"/>
</svg>
