<svg width="65" height="65" viewBox="0 0 65 65" fill="none" xmlns="http://www.w3.org/2000/svg">
<path d="M28.4743 17.5767C31.0807 16.6645 33.9197 16.6645 36.5261 17.5767L57.1095 24.7809C59.2843 25.5446 59.2843 28.6213 57.1095 29.3851L36.5261 36.5892C33.9197 37.5014 31.0807 37.5014 28.4743 36.5892L13.5541 31.3622C13.0052 31.7685 12.5933 32.3325 12.3732 32.979C12.7301 33.2262 13.0223 33.5555 13.2253 33.9392C13.4282 34.323 13.536 34.7499 13.5394 35.184C13.5429 35.618 13.4419 36.0466 13.2451 36.4335C13.0483 36.8204 12.7613 37.1543 12.4084 37.4072L12.4193 37.4559L14.7891 48.124C14.8417 48.3614 14.8405 48.6075 14.7854 48.8443C14.7303 49.0811 14.6228 49.3026 14.4707 49.4923C14.3187 49.682 14.126 49.8352 13.9069 49.9406C13.6878 50.046 13.4478 50.1008 13.2047 50.1011H8.4624C8.21904 50.1012 7.97876 50.0467 7.75931 49.9415C7.53986 49.8363 7.34684 49.6831 7.19449 49.4934C7.04215 49.3036 6.93438 49.082 6.87914 48.845C6.82389 48.608 6.82258 48.3616 6.87531 48.124L9.2451 37.4532L9.25865 37.4072C8.87916 37.136 8.57612 36.7714 8.37889 36.3488C8.18166 35.9261 8.09693 35.4597 8.13288 34.9947C8.16884 34.5297 8.32428 34.0818 8.58414 33.6945C8.844 33.3072 9.19948 32.9936 9.61615 32.784C9.8156 31.9118 10.1967 31.0913 10.7347 30.3763L7.89094 29.3824C5.71344 28.6186 5.71344 25.5419 7.89094 24.7782L28.4743 17.5767Z" fill="white"/>
<path d="M17.3134 34.7488L16.4142 41.9367C16.2599 43.1609 16.7582 44.4284 17.8226 45.1759C20.9561 47.3832 26.064 50.1051 32.5018 50.1051C37.854 50.1216 43.0629 48.3761 47.3245 45.138C48.313 44.3796 48.7382 43.169 48.5974 42.018L47.6874 34.7461L36.5263 38.6515C33.9199 39.5637 31.0809 39.5637 28.4745 38.6515L17.3134 34.7488Z" fill="white"/>
</svg>
