<svg width="233" height="60" viewBox="0 0 233 60" fill="none" xmlns="http://www.w3.org/2000/svg">
<path d="M26.6378 29.4188V25.0195H23.2007H19.7637L26.6378 29.4188Z" fill="#1B2634"/>
<path d="M36.747 25.0195H43.6211L36.747 29.4188V25.0195Z" fill="#1B2634"/>
<path d="M36.9781 35.2656H26.8691L31.8909 39.2597L36.9781 35.2656Z" fill="#1B2634"/>
<path d="M31.8094 0L42.1399 11.9531H21.479L31.8094 0Z" fill="#1B2634"/>
<path d="M5.96429 14.9803L21.46 11.992L11.1295 29.9217L5.96429 14.9803Z" fill="#1B2634"/>
<path d="M5.96429 44.9806L21.46 47.9689L11.1295 30.0392L5.96429 44.9806Z" fill="#1B2634"/>
<path d="M57.6871 14.9803L42.1914 11.992L52.5219 29.9217L57.6871 14.9803Z" fill="#1B2634"/>
<path d="M57.6871 44.922L42.1914 47.9103L52.5219 29.9806L57.6871 44.922Z" fill="#1B2634"/>
<path d="M31.8094 60L42.1399 48.0469H21.479L31.8094 60Z" fill="#1B2634"/>
<path d="M74.96 23V8.85938H77.499V20.8516H83.749V23H74.96ZM88.3193 8.85938V23H85.7803V8.85938H88.3193ZM90.9561 23V8.85938H93.4951V15.3633H93.6904L99.2178 8.85938H102.323L96.8545 15.207L102.382 23H99.3154L95.0771 16.9258L93.4951 18.7812V23H90.9561ZM103.944 23V8.85938H113.144V10.9883H106.483V14.8555H112.655V16.9844H106.483V20.8516H113.183V23H103.944ZM115.585 23V8.85938H118.124V20.8516H124.374V23H115.585ZM128.944 8.85938V23H126.405V8.85938H128.944ZM144.198 15.9297C144.198 20.5 141.425 23.1953 137.714 23.1953C134.003 23.1953 131.229 20.4805 131.229 15.9297C131.229 11.3594 134.003 8.66406 137.714 8.66406C141.425 8.66406 144.198 11.3594 144.198 15.9297ZM141.64 15.9297C141.64 12.707 140.019 10.9492 137.714 10.9492C135.409 10.9492 133.788 12.707 133.788 15.9297C133.788 19.1523 135.409 20.9102 137.714 20.9102C140.019 20.9102 141.64 19.1523 141.64 15.9297ZM158.085 8.85938V23H155.819L149.12 13.332H149.003V23H146.464V8.85938H148.769L155.429 18.5273H155.565V8.85938H158.085ZM76.7568 51H74.042L79.0225 36.8594H82.1475L87.1475 51H84.4326L83.2607 47.5039H77.9287L76.7568 51ZM78.6123 45.4531H82.5771L80.6436 39.75H80.5264L78.6123 45.4531ZM86.4834 38.9883V36.8594H97.7529V38.9883H93.3975V51H90.8584V38.9883H86.4834ZM112.187 40.7461C112.069 39.5352 111.034 38.832 109.511 38.832C107.909 38.832 106.933 39.6133 106.933 40.668C106.933 41.8594 108.183 42.3477 109.354 42.6211L110.683 42.9727C112.792 43.4609 114.823 44.5742 114.823 47.0352C114.823 49.5156 112.87 51.2148 109.472 51.2148C106.171 51.2148 104.101 49.6328 103.983 46.8398H106.483C106.601 48.3242 107.851 49.0469 109.452 49.0469C111.132 49.0469 112.284 48.2266 112.284 47.0156C112.284 45.9023 111.249 45.4336 109.726 45.043L108.124 44.6328C105.8 44.0273 104.354 42.8555 104.354 40.8242C104.354 38.3242 106.581 36.6641 109.55 36.6641C112.558 36.6641 114.589 38.3633 114.628 40.7461H112.187ZM129.55 43.9297C129.55 48.5 126.776 51.1953 123.065 51.1953C119.354 51.1953 116.581 48.4805 116.581 43.9297C116.581 39.3594 119.354 36.6641 123.065 36.6641C126.776 36.6641 129.55 39.3594 129.55 43.9297ZM126.991 43.9297C126.991 40.707 125.37 38.9492 123.065 38.9492C120.761 38.9492 119.14 40.707 119.14 43.9297C119.14 47.1523 120.761 48.9102 123.065 48.9102C125.37 48.9102 126.991 47.1523 126.991 43.9297ZM144.433 43.9297C144.433 48.5 141.659 51.1953 137.948 51.1953C134.237 51.1953 131.464 48.4805 131.464 43.9297C131.464 39.3594 134.237 36.6641 137.948 36.6641C141.659 36.6641 144.433 39.3594 144.433 43.9297ZM141.874 43.9297C141.874 40.707 140.253 38.9492 137.948 38.9492C135.644 38.9492 134.022 40.707 134.022 43.9297C134.022 47.1523 135.644 48.9102 137.948 48.9102C140.253 48.9102 141.874 47.1523 141.874 43.9297ZM146.698 51V36.8594H149.237V43.3633H149.433L154.96 36.8594H158.065L152.597 43.207L158.124 51H155.058L150.819 44.9258L149.237 46.7812V51H146.698ZM159.687 36.8594H162.812L167.011 47.1328H167.187L171.386 36.8594H174.511V51H172.069V41.2734H171.933L168.007 50.9609H166.19L162.265 41.2344H162.147V51H159.687V36.8594ZM176.151 36.8594H179.022L182.499 43.1094H182.636L186.112 36.8594H188.983L183.847 45.707V51H181.308V45.707L176.151 36.8594ZM199.55 36.8594H202.108V46.0977C202.108 49.125 199.804 51.2148 196.366 51.2148C192.909 51.2148 190.624 49.125 190.624 46.0977V36.8594H193.163V45.8828C193.163 47.6602 194.413 48.9492 196.366 48.9492C198.319 48.9492 199.55 47.6602 199.55 45.8828V36.8594ZM216.347 36.8594V51H214.081L207.382 41.332H207.265V51H204.726V36.8594H207.03L213.69 46.5273H213.827V36.8594H216.347ZM228.437 41.3711C227.987 39.8672 226.815 38.9492 225.097 38.9492C222.812 38.9492 221.171 40.7266 221.171 43.9102C221.171 47.1328 222.792 48.9102 225.155 48.9102C227.284 48.9102 228.651 47.6211 228.69 45.6094H225.409V43.5977H231.151V45.2969C231.151 48.9297 228.651 51.1953 225.155 51.1953C221.249 51.1953 218.612 48.4219 218.612 43.9297C218.612 39.3984 221.366 36.6641 225.077 36.6641C228.202 36.6641 230.604 38.5977 231.034 41.3711H228.437Z" fill="#1B2634"/>
</svg>
