<svg width="36" height="36" viewBox="0 0 36 36" fill="none" xmlns="http://www.w3.org/2000/svg">
<path d="M0.000420053 18.0358C0.000420053 17.5825 0.167637 17.1769 0.478184 16.8429C0.622126 16.6822 0.79903 16.5542 0.996881 16.4678C1.19473 16.3813 1.40889 16.3384 1.62482 16.3419C2.0787 16.3419 2.4848 16.5089 2.79534 16.8429C3.10589 17.1769 3.27311 17.5586 3.27311 18.0358C3.27311 18.4891 3.10589 18.8708 2.79534 19.1809C2.64571 19.333 2.46726 19.4537 2.27039 19.5362C2.07352 19.6186 1.86218 19.6611 1.64871 19.6611C1.43523 19.6611 1.2239 19.6186 1.02703 19.5362C0.830162 19.4537 0.651705 19.333 0.502073 19.1809C0.339827 19.0382 0.210841 18.8617 0.124177 18.6639C0.0375121 18.466 -0.00472889 18.2517 0.000420053 18.0358ZM4.73029 18.0358C4.73029 17.5825 4.89751 17.1769 5.20806 16.8429C5.352 16.6822 5.5289 16.5542 5.72675 16.4678C5.9246 16.3813 6.13876 16.3384 6.35469 16.3419H14.0706L8.62407 10.9026C8.46239 10.7646 8.33349 10.5923 8.24672 10.3984C8.15995 10.2045 8.11749 9.99367 8.12242 9.78131C8.12242 9.32803 8.28964 8.94632 8.62407 8.61232C8.95851 8.27833 9.34072 8.11133 9.7946 8.11133C10.2485 8.11133 10.6307 8.27833 10.9651 8.61232L16.3878 14.0278V6.36978C16.3878 5.9165 16.555 5.51093 16.8894 5.17694C17.2238 4.84294 17.6061 4.67594 18.0838 4.67594C18.5377 4.67594 18.9199 4.84294 19.2305 5.17694C19.541 5.51093 19.7082 5.89264 19.7082 6.36978V14.0755L25.1786 8.58847C25.5131 8.25447 25.8953 8.08747 26.3253 8.08747C26.7552 8.08747 27.1613 8.25447 27.4958 8.58847C27.7824 8.92246 27.9258 9.30417 27.9258 9.75745C27.9258 10.2107 27.7824 10.5924 27.4958 10.8787L22.0493 16.3181H29.7652C30.1952 16.3181 30.5774 16.4851 30.8879 16.8191C31.1985 17.1531 31.3657 17.5348 31.3657 18.0119C31.3657 18.4413 31.1985 18.8231 30.8879 19.1332C30.7427 19.2843 30.5684 19.4045 30.3754 19.4865C30.1825 19.5685 29.9749 19.6106 29.7652 19.6103H22.0493L27.5197 25.0736C27.8063 25.3598 27.9497 25.7415 27.9497 26.1948C27.9497 26.6481 27.8063 27.0298 27.5197 27.3638C27.1852 27.6978 26.7791 27.8648 26.3491 27.8648C25.9192 27.8648 25.5131 27.6978 25.2025 27.3638L19.7321 21.8767V29.6064C19.7321 30.0596 19.5649 30.4652 19.2543 30.7753C18.9438 31.0855 18.5616 31.2525 18.1077 31.2525C17.6628 31.2537 17.2346 31.0827 16.9133 30.7753C16.7517 30.627 16.6234 30.4461 16.5369 30.2446C16.4505 30.0431 16.4078 29.8255 16.4116 29.6064V21.9245L10.989 27.34C10.6546 27.6739 10.2724 27.8409 9.81849 27.8409C9.36461 27.8409 8.9824 27.6739 8.64796 27.34C8.31353 27.006 8.14631 26.6242 8.14631 26.171C8.14631 25.7177 8.31353 25.3598 8.64796 25.0497L14.1423 19.5865H6.40247C5.94859 19.5865 5.56638 19.4195 5.25583 19.1093C5.08316 18.9907 4.94406 18.8295 4.852 18.6414C4.75994 18.4534 4.71801 18.2448 4.73029 18.0358ZM4.75418 29.5825C4.75418 29.1531 4.9214 28.7475 5.25583 28.4374C5.54249 28.1034 5.9247 27.9364 6.37858 27.9364C6.83246 27.9364 7.21467 28.1034 7.5491 28.4374C7.88354 28.7714 8.05076 29.1531 8.05076 29.5825C8.05076 30.0119 7.88354 30.4175 7.5491 30.7276C7.21467 31.0616 6.83246 31.2286 6.37858 31.2286C5.9247 31.2286 5.54249 31.0616 5.25583 30.7276C5.09484 30.5839 4.96672 30.4072 4.88016 30.2096C4.7936 30.012 4.75063 29.7981 4.75418 29.5825ZM4.75418 6.41749C4.75418 5.98807 4.9214 5.58251 5.25583 5.27237C5.54249 4.93837 5.9247 4.77137 6.37858 4.77137C6.83246 4.77137 7.21467 4.93837 7.5491 5.27237C7.88354 5.60636 8.05076 5.98807 8.05076 6.41749C8.05076 7.06163 7.88354 7.25248 7.5491 7.58648C7.21467 7.92048 6.83246 8.08747 6.37858 8.08747C5.9247 8.08747 5.54249 7.92048 5.25583 7.58648C5.09768 7.43542 4.97172 7.25401 4.88552 7.05313C4.79931 6.85225 4.75464 6.63604 4.75418 6.41749ZM16.34 34.3539C16.34 33.9244 16.5072 33.5427 16.8416 33.2326C17.1761 32.9225 17.5583 32.7555 18.036 32.7555C18.4899 32.7555 18.8721 32.9225 19.1827 33.2326C19.4932 33.5427 19.6604 33.9244 19.6604 34.3539C19.6604 34.8071 19.4932 35.2127 19.1827 35.5229C18.8721 35.833 18.4899 36 18.036 36C17.5911 36.0012 17.163 35.8302 16.8416 35.5229C16.6788 35.3755 16.5497 35.1947 16.4631 34.993C16.3766 34.7913 16.3346 34.5733 16.34 34.3539ZM16.34 1.64612C16.34 1.19284 16.5072 0.787277 16.8416 0.477138C17.1761 0.166999 17.5583 0 18.036 0C18.4899 0 18.8721 0.166999 19.1827 0.477138C19.4091 0.703999 19.5631 0.992704 19.6255 1.30687C19.6878 1.62104 19.6557 1.94661 19.533 2.24255C19.4104 2.53849 19.2028 2.79156 18.9364 2.96987C18.67 3.14818 18.3567 3.24375 18.036 3.24453C17.5911 3.24577 17.163 3.07475 16.8416 2.7674C16.6825 2.62729 16.5553 2.45466 16.4688 2.26121C16.3822 2.06776 16.3383 1.858 16.34 1.64612ZM27.9736 29.5825C27.9736 29.1531 28.1408 28.7475 28.4752 28.4374C28.7619 28.1034 29.1441 27.9364 29.598 27.9364C30.0518 27.9364 30.434 28.1034 30.7685 28.4374C31.1029 28.7714 31.2701 29.1531 31.2701 29.5825C31.2701 30.0119 31.1029 30.4175 30.7685 30.7276C30.434 31.0616 30.0518 31.2286 29.598 31.2286C29.1441 31.2286 28.7619 31.0616 28.4752 30.7276C28.3142 30.5839 28.1861 30.4072 28.0995 30.2096C28.013 30.012 27.97 29.7981 27.9736 29.5825ZM27.9736 6.41749C27.9736 5.98807 28.1408 5.58251 28.4752 5.27237C28.7619 4.93837 29.1441 4.77137 29.598 4.77137C30.0518 4.77137 30.434 4.93837 30.7685 5.27237C31.1029 5.60636 31.2701 5.98807 31.2701 6.41749C31.2701 7.06163 31.1029 7.25248 30.7685 7.58648C30.434 7.92048 30.0518 8.08747 29.598 8.08747C29.1441 8.08747 28.7619 7.92048 28.4752 7.58648C28.317 7.43542 28.1911 7.25401 28.1049 7.05313C28.0187 6.85225 27.974 6.63604 27.9736 6.41749ZM32.7512 18.0358C32.7512 17.5825 32.9184 17.1769 33.229 16.8429C33.5395 16.5089 33.9456 16.3419 34.3995 16.3419C34.8295 16.3419 35.2117 16.5089 35.5222 16.8429C35.8328 17.1769 36 17.5586 36 18.0358C36 18.4652 35.8328 18.8469 35.5222 19.1571C35.2178 19.4601 34.8054 19.6302 34.3756 19.6302C33.9458 19.6302 33.5334 19.4601 33.229 19.1571C33.0776 19.0121 32.9573 18.838 32.8752 18.6452C32.7931 18.4525 32.7509 18.2452 32.7512 18.0358Z" fill="#4682F3"/>
</svg>
