<svg width="17" height="17" viewBox="0 0 17 17" fill="none" xmlns="http://www.w3.org/2000/svg">
<path d="M0.000198358 8.5169C0.000198358 8.30285 0.079162 8.11133 0.225809 7.95361C0.293782 7.87769 0.37732 7.81726 0.470749 7.77644C0.564178 7.73562 0.665311 7.71536 0.767277 7.71703C0.981607 7.71703 1.17338 7.79589 1.32002 7.95361C1.46667 8.11133 1.54563 8.29158 1.54563 8.5169C1.54563 8.73095 1.46667 8.9112 1.32002 9.05765C1.24936 9.12946 1.16509 9.18649 1.07213 9.22542C0.979162 9.26435 0.879364 9.2844 0.778556 9.2844C0.677749 9.2844 0.577952 9.26435 0.484986 9.22542C0.392021 9.18649 0.30775 9.12946 0.23709 9.05765C0.160474 8.99025 0.0995638 8.90691 0.0586389 8.81349C0.017714 8.72007 -0.00223308 8.61884 0.000198358 8.5169ZM2.23375 8.5169C2.23375 8.30285 2.31271 8.11133 2.45936 7.95361C2.52733 7.87769 2.61087 7.81726 2.7043 7.77644C2.79773 7.73562 2.89886 7.71536 3.00083 7.71703H6.64445L4.07248 5.14844C3.99613 5.08327 3.93526 5.00194 3.89429 4.91036C3.85331 4.81878 3.83326 4.71923 3.83559 4.61895C3.83559 4.4049 3.91455 4.22465 4.07248 4.06693C4.23041 3.90921 4.4109 3.83035 4.62523 3.83035C4.83956 3.83035 5.02005 3.90921 5.17797 4.06693L7.73866 6.62425V3.00795C7.73866 2.7939 7.81762 2.60239 7.97555 2.44467C8.13348 2.28695 8.31397 2.20808 8.53958 2.20808C8.75391 2.20808 8.9344 2.28695 9.08105 2.44467C9.22769 2.60239 9.30666 2.78264 9.30666 3.00795V6.64678L11.8899 4.05567C12.0478 3.89794 12.2283 3.81908 12.4314 3.81908C12.6344 3.81908 12.8262 3.89794 12.9841 4.05567C13.1195 4.21339 13.1872 4.39364 13.1872 4.60769C13.1872 4.82173 13.1195 5.00199 12.9841 5.13718L10.4122 7.70576H14.0558C14.2588 7.70576 14.4393 7.78462 14.586 7.94234C14.7326 8.10006 14.8116 8.28032 14.8116 8.50563C14.8116 8.70841 14.7326 8.88867 14.586 9.03512C14.5174 9.10649 14.4351 9.16324 14.344 9.20197C14.2528 9.24069 14.1548 9.26058 14.0558 9.26043H10.4122L12.9954 11.8403C13.1308 11.9755 13.1985 12.1557 13.1985 12.3698C13.1985 12.5838 13.1308 12.7641 12.9954 12.9218C12.8375 13.0795 12.6457 13.1584 12.4427 13.1584C12.2396 13.1584 12.0478 13.0795 11.9012 12.9218L9.31794 10.3307V13.9808C9.31794 14.1948 9.23898 14.3863 9.09233 14.5328C8.94568 14.6793 8.76519 14.7581 8.55086 14.7581C8.34075 14.7587 8.13858 14.6779 7.98683 14.5328C7.91052 14.4627 7.84995 14.3773 7.80911 14.2822C7.76828 14.187 7.74811 14.0843 7.74994 13.9808V10.3532L5.18926 12.9105C5.03133 13.0683 4.85084 13.1471 4.63651 13.1471C4.42218 13.1471 4.24169 13.0683 4.08376 12.9105C3.92583 12.7528 3.84687 12.5726 3.84687 12.3585C3.84687 12.1445 3.92583 11.9755 4.08376 11.829L6.67829 9.24917H3.02339C2.80906 9.24917 2.62857 9.17031 2.48192 9.02386C2.40038 8.96781 2.3347 8.89171 2.29122 8.8029C2.24775 8.71409 2.22795 8.61558 2.23375 8.5169ZM2.24503 13.9695C2.24503 13.7667 2.32399 13.5752 2.48192 13.4288C2.61729 13.271 2.79778 13.1922 3.01211 13.1922C3.22644 13.1922 3.40693 13.271 3.56485 13.4288C3.72278 13.5865 3.80175 13.7667 3.80175 13.9695C3.80175 14.1723 3.72278 14.3638 3.56485 14.5103C3.40693 14.668 3.22644 14.7468 3.01211 14.7468C2.79778 14.7468 2.61729 14.668 2.48192 14.5103C2.4059 14.4424 2.34539 14.359 2.30452 14.2657C2.26364 14.1723 2.24335 14.0713 2.24503 13.9695ZM2.24503 3.03048C2.24503 2.8277 2.32399 2.63618 2.48192 2.48973C2.61729 2.33201 2.79778 2.25315 3.01211 2.25315C3.22644 2.25315 3.40693 2.33201 3.56485 2.48973C3.72278 2.64745 3.80175 2.8277 3.80175 3.03048C3.80175 3.33466 3.72278 3.42478 3.56485 3.5825C3.40693 3.74022 3.22644 3.81908 3.01211 3.81908C2.79778 3.81908 2.61729 3.74022 2.48192 3.5825C2.40724 3.51117 2.34776 3.4255 2.30705 3.33064C2.26634 3.23578 2.24525 3.13369 2.24503 3.03048ZM7.7161 16.2227C7.7161 16.0199 7.79506 15.8396 7.95299 15.6932C8.11092 15.5467 8.29141 15.4679 8.51702 15.4679C8.73135 15.4679 8.91184 15.5467 9.05849 15.6932C9.20513 15.8396 9.2841 16.0199 9.2841 16.2227C9.2841 16.4367 9.20513 16.6282 9.05849 16.7747C8.91184 16.9211 8.73135 17 8.51702 17C8.30691 17.0006 8.10474 16.9198 7.95299 16.7747C7.8761 16.7051 7.81513 16.6197 7.77425 16.5245C7.73337 16.4292 7.71354 16.3263 7.7161 16.2227ZM7.7161 0.777336C7.7161 0.563287 7.79506 0.37177 7.95299 0.225315C8.11092 0.0788605 8.29141 0 8.51702 0C8.73135 0 8.91184 0.0788605 9.05849 0.225315C9.16539 0.332444 9.23814 0.468777 9.26759 0.617133C9.29703 0.76549 9.28184 0.91923 9.22394 1.05898C9.16603 1.19873 9.06801 1.31824 8.9422 1.40244C8.8164 1.48664 8.66846 1.53177 8.51702 1.53214C8.30691 1.53272 8.10474 1.45196 7.95299 1.30683C7.87784 1.24066 7.81779 1.15915 7.77692 1.0678C7.73605 0.976443 7.71531 0.877388 7.7161 0.777336ZM13.2097 13.9695C13.2097 13.7667 13.2887 13.5752 13.4466 13.4288C13.582 13.271 13.7625 13.1922 13.9768 13.1922C14.1911 13.1922 14.3716 13.271 14.5296 13.4288C14.6875 13.5865 14.7664 13.7667 14.7664 13.9695C14.7664 14.1723 14.6875 14.3638 14.5296 14.5103C14.3716 14.668 14.1911 14.7468 13.9768 14.7468C13.7625 14.7468 13.582 14.668 13.4466 14.5103C13.3706 14.4424 13.3101 14.359 13.2692 14.2657C13.2283 14.1723 13.2081 14.0713 13.2097 13.9695ZM13.2097 3.03048C13.2097 2.8277 13.2887 2.63618 13.4466 2.48973C13.582 2.33201 13.7625 2.25315 13.9768 2.25315C14.1911 2.25315 14.3716 2.33201 14.5296 2.48973C14.6875 2.64745 14.7664 2.8277 14.7664 3.03048C14.7664 3.33466 14.6875 3.42478 14.5296 3.5825C14.3716 3.74022 14.1911 3.81908 13.9768 3.81908C13.7625 3.81908 13.582 3.74022 13.4466 3.5825C13.3719 3.51117 13.3125 3.4255 13.2718 3.33064C13.231 3.23578 13.2099 3.13369 13.2097 3.03048ZM15.4658 8.5169C15.4658 8.30285 15.5448 8.11133 15.6915 7.95361C15.8381 7.79589 16.0299 7.71703 16.2442 7.71703C16.4473 7.71703 16.6277 7.79589 16.7744 7.95361C16.921 8.11133 17 8.29158 17 8.5169C17 8.71968 16.921 8.89993 16.7744 9.04639C16.6306 9.18948 16.4359 9.26983 16.2329 9.26983C16.0299 9.26983 15.8352 9.18948 15.6915 9.04639C15.62 8.97792 15.5632 8.8957 15.5244 8.8047C15.4856 8.7137 15.4657 8.6158 15.4658 8.5169Z" fill="#1B2634" fill-opacity="0.7"/>
</svg>
