<svg width="15" height="29" viewBox="0 0 15 29" fill="none" xmlns="http://www.w3.org/2000/svg">
<path d="M12.1905 6.46373V21.1001C12.1905 22.4503 11.6542 23.7452 10.6994 24.6999C9.74469 25.6546 8.4498 26.191 7.09961 26.191C5.74942 26.191 4.45452 25.6546 3.49979 24.6999C2.54506 23.7452 2.0087 22.4503 2.0087 21.1001V5.19101C2.0087 4.34714 2.34393 3.53783 2.94063 2.94112C3.53734 2.34441 4.34665 2.00919 5.19052 2.00919C6.03439 2.00919 6.8437 2.34441 7.4404 2.94112C8.03711 3.53783 8.37234 4.34714 8.37234 5.19101V18.5546C8.37234 18.8922 8.23825 19.2159 7.99956 19.4546C7.76088 19.6933 7.43716 19.8274 7.09961 19.8274C6.76206 19.8274 6.43834 19.6933 6.19966 19.4546C5.96097 19.2159 5.82688 18.8922 5.82688 18.5546V6.46373H3.91779V18.5546C3.91779 19.3985 4.25302 20.2078 4.84972 20.8045C5.44643 21.4012 6.25574 21.7365 7.09961 21.7365C7.94348 21.7365 8.75279 21.4012 9.34949 20.8045C9.9462 20.2078 10.2814 19.3985 10.2814 18.5546V5.19101C10.2814 3.84081 9.74507 2.54592 8.79033 1.59119C7.8356 0.63646 6.54071 0.100098 5.19052 0.100098C3.84033 0.100098 2.54543 0.63646 1.5907 1.59119C0.635971 2.54592 0.0996094 3.84081 0.0996094 5.19101V21.1001C0.0996094 22.9566 0.837107 24.7371 2.14986 26.0498C3.46262 27.3626 5.24309 28.1001 7.09961 28.1001C8.95612 28.1001 10.7366 27.3626 12.0494 26.0498C13.3621 24.7371 14.0996 22.9566 14.0996 21.1001V6.46373H12.1905Z" fill="#1B2634" stroke="#1B2634" stroke-width="0.2"/>
</svg>
