<svg width="1169" height="1172" viewBox="0 0 1169 1172" fill="none" xmlns="http://www.w3.org/2000/svg">
<g clip-path="url(#clip0_2650_139)">
<path d="M584.5 0.508789L1090.69 292.759V877.259L584.5 1169.51L78.3082 877.259V292.759L584.5 0.508789Z" fill="#E9EDF4"/>
<rect width="100" height="1012.39" transform="matrix(-0.866025 -0.5 -0.5 0.866025 748.849 95.5088)" fill="#0072CE"/>
<rect width="100" height="1012.39" transform="matrix(-0.866025 -0.5 -0.5 0.866025 868.799 164.06)" fill="#0072CE"/>
<rect width="100" height="1012.39" transform="matrix(-0.866025 -0.5 -0.5 0.866025 985.799 232.06)" fill="#0072CE"/>
<rect x="400" y="106.509" width="100" height="1012.39" transform="rotate(-30 400 106.509)" fill="#0072CE"/>
<rect x="280.05" y="176.06" width="100" height="1012.39" transform="rotate(-30 280.05 176.06)" fill="#0072CE"/>
<rect x="163.05" y="244.06" width="100" height="1012.39" transform="rotate(-30 163.05 244.06)" fill="#0072CE"/>
<rect width="100" height="1013" transform="matrix(0 -1 -1 0 1091 635)" fill="#0072CE"/>
<rect width="100" height="1013" transform="matrix(0 -1 -1 0 1091 499.509)" fill="#0072CE"/>
<rect width="100" height="1013" transform="matrix(0 -1 -1 0 1090 770)" fill="#0072CE"/>
<path d="M787.25 234.085L1090.26 292.412L989.258 584.049L990.143 585.581L989.669 586.399L1090.26 876.849L788.483 934.938L786.228 937.844L584.213 1171.16L382.198 937.844L380.604 936.087L78.8027 877.993L179.402 587.519L178.284 585.581L179.566 583.358L78.8027 292.412L381.095 234.223L382.198 233.317L584.213 0L786.228 233.317L787.25 234.085Z" fill="white"/>
<path d="M230 585.509L407.5 278.07H762.5L940 585.509L762.5 892.948H407.5L230 585.509Z" fill="white"/>
<path d="M496.556 500.508H378.997L496.556 575.588V500.508Z" fill="#003087"/>
<path d="M669.441 500.508H787.001L669.441 575.588V500.508Z" fill="#003087"/>
<path d="M673.395 675.367H500.513L586.395 743.532L673.395 675.367Z" fill="#FFB500"/>
<path d="M585 73.5088L761.669 277.509H408.331L585 73.5088Z" fill="#003087"/>
<path d="M143 329.178L408.004 278.178L231.335 584.178L143 329.178Z" fill="#003087"/>
<path d="M143 841.178L408.004 892.178L231.335 586.178L143 841.178Z" fill="#003087"/>
<path d="M1027.56 329.178L762.555 278.178L939.224 584.178L1027.56 329.178Z" fill="#003087"/>
<path d="M1027.56 840.178L762.555 891.178L939.224 585.178L1027.56 840.178Z" fill="#003087"/>
<path d="M585 1097.51L761.669 893.509H408.331L585 1097.51Z" fill="#003087"/>
</g>
<defs>
<clipPath id="clip0_2650_139">
<rect width="1169" height="1171.16" fill="white"/>
</clipPath>
</defs>
</svg>
