<svg width="80" height="80" viewBox="0 0 80 80" fill="none" xmlns="http://www.w3.org/2000/svg">
<g clip-path="url(#clip0_307_40648)">
<path d="M15 70.1334L16.1111 80L23.3111 73.1556L35.6222 39.3778C32.6 38.6222 29.9333 37.1111 27.7556 35.0222L15 70.1334Z" fill="#4284FF"/>
<path d="M52.3778 35.0222C50.2 37.1111 47.4889 38.6222 44.5111 39.3778L56.8222 73.1556L64.0222 80L65.1778 70.1334L52.3778 35.0222Z" fill="#4284FF"/>
<path d="M53.4 22.2222C53.4 16.4445 49.6667 11.5556 44.5111 9.68889V4.44444C44.5111 1.98984 42.5213 0 40.0667 0C37.6121 0 35.6222 1.98985 35.6222 4.44445V9.68889C30.4667 11.5556 26.7333 16.4445 26.7333 22.2222C26.7333 29.6 32.6889 35.5556 40.0667 35.5556C47.4445 35.5556 53.4 29.6 53.4 22.2222ZM40.0667 26C37.6222 26 39.5 24.6667 39.5 22.2222C39.5 19.7778 37.0556 28.5 39.5 28.5C41.9444 28.5 47.5 22.2222 42 22.2222C42 24.6667 42.5111 26 40.0667 26Z" fill="#4284FF"/>
</g>
<defs>
<clipPath id="clip0_307_40648">
<rect width="80" height="80" fill="white"/>
</clipPath>
</defs>
</svg>
