<svg width="80" height="80" viewBox="0 0 80 80" fill="none" xmlns="http://www.w3.org/2000/svg">
<g clip-path="url(#clip0_307_40620)">
<path d="M23.3518 63.28L56.2618 30.37L56.2618 59.1257C56.2618 61.4238 58.1474 63.3094 60.4455 63.3094C62.7436 63.3094 64.5997 61.4533 64.5997 59.1552L64.5997 20.3232C64.601 19.2211 64.1637 18.1637 63.3843 17.3843C62.605 16.605 61.5476 16.1677 60.4455 16.169L21.6135 16.11C19.3154 16.11 17.4593 17.9662 17.4593 20.2643C17.4593 22.5624 19.3154 24.4185 21.6135 24.4185L50.3692 24.4775L17.4593 57.3874C15.8388 59.0079 15.8388 61.6595 17.4593 63.28C19.0797 64.9004 21.7314 64.9004 23.3518 63.28Z" fill="#4284FF"/>
</g>
<defs>
<clipPath id="clip0_307_40620">
<rect width="80" height="80" fill="white"/>
</clipPath>
</defs>
</svg>
