<svg width="80" height="80" viewBox="0 0 80 80" fill="none" xmlns="http://www.w3.org/2000/svg">
<g clip-path="url(#clip0_307_40638)">
<path d="M30.3333 69.9993C30.3333 71.666 31.6667 73.3327 33.6667 73.3327H47C49 73.3327 50.3333 71.666 50.3333 69.9993V66.666H30.3333V69.9993ZM40.3333 6.66602C27.3333 6.66602 17 16.9993 17 29.9993C17 37.9993 21 44.9993 27 48.9993V56.666C27 58.3327 28.3333 59.9993 30.3333 59.9993H50.3333C52.3333 59.9993 53.6667 58.3327 53.6667 56.666V48.9993C59.6667 44.666 63.6667 37.666 63.6667 29.9993C63.6667 16.9993 53.3333 6.66602 40.3333 6.66602Z" fill="#4284FF"/>
</g>
<defs>
<clipPath id="clip0_307_40638">
<rect width="80" height="80" fill="white"/>
</clipPath>
</defs>
</svg>
