<svg width="80" height="80" viewBox="0 0 80 80" fill="none" xmlns="http://www.w3.org/2000/svg">
<g clip-path="url(#clip0_307_40657)">
<path d="M21.6633 28.4455L10.6606 39.4482C8.87521 41.2098 7.45592 43.3072 6.48444 45.6196C5.51297 47.9321 5.00851 50.4138 5.00011 52.922C4.99171 55.4301 5.47953 57.9152 6.43549 60.2341C7.39145 62.553 8.79665 64.6598 10.5702 66.4334C12.3438 68.2069 14.4506 69.6121 16.7695 70.5681C19.0884 71.5241 21.5734 72.0119 24.0816 72.0035C26.5898 71.9951 29.0715 71.4906 31.3839 70.5191C33.6963 69.5477 35.7937 68.1284 37.5553 66.343L41.2206 62.6777C41.7162 62.1995 42.1116 61.6273 42.3837 60.9947C42.6558 60.362 42.7992 59.6815 42.8056 58.9928C42.8119 58.3041 42.681 57.6211 42.4205 56.9835C42.16 56.346 41.7751 55.7667 41.2884 55.2795C40.8016 54.7923 40.2227 54.4068 39.5854 54.1458C38.9481 53.8847 38.2652 53.7531 37.5765 53.7588C36.8878 53.7644 36.2071 53.9072 35.5742 54.1787C34.9413 54.4502 34.3688 54.8451 33.8901 55.3402L30.2179 59.009C28.5941 60.6182 26.399 61.5186 24.1129 61.5133C21.8268 61.508 19.6359 60.5973 18.0196 58.9806C16.4033 57.3638 15.4932 55.1726 15.4885 52.8865C15.4839 50.6004 16.3849 48.4055 17.9946 46.7822L28.9973 35.7795C30.1865 34.5897 31.6971 33.7728 33.3437 33.4288C34.9904 33.0849 36.7016 33.2289 38.2676 33.8431C38.8255 34.0644 39.3488 34.2903 39.8375 34.5208L41.4419 35.2712C43.5857 36.2394 45.2351 36.6543 47.334 34.5589C50.3492 31.5437 49.5677 28.7601 45.8921 26.2256C42.2306 23.7061 37.8023 22.5486 33.3763 22.9541C28.9502 23.3596 24.806 25.3026 21.6633 28.4455ZM42.4447 7.66408L38.7794 11.3293C37.8341 12.3071 37.3107 13.6171 37.3219 14.977C37.3331 16.3369 37.8779 17.6381 38.8391 18.6002C39.8003 19.5623 41.101 20.1084 42.4609 20.1209C43.8208 20.1333 45.1313 19.6112 46.1099 18.6668L49.7786 15.0015C50.5758 14.1757 51.5295 13.5168 52.5841 13.0635C53.6386 12.6102 54.7729 12.3714 55.9207 12.3611C57.0685 12.3508 58.2068 12.5692 59.2693 13.0035C60.3318 13.4379 61.2972 14.0795 62.1091 14.8909C62.9209 15.7023 63.5631 16.6673 63.998 17.7296C64.433 18.7918 64.652 19.9301 64.6424 21.0779C64.6327 22.2257 64.3946 23.3601 63.9418 24.4149C63.4891 25.4697 62.8308 26.4237 62.0054 27.2214L51.0027 38.2241C49.8135 39.4139 48.3029 40.2308 46.6563 40.5748C45.0096 40.9187 43.2984 40.7747 41.7324 40.1605C41.1745 39.9392 40.6512 39.7133 40.1625 39.4828L38.5581 38.7324C36.4143 37.7642 34.7614 37.3493 32.666 39.4447C29.6508 42.4599 30.4323 45.2435 34.1079 47.778C37.7694 50.2975 42.1977 51.455 46.6237 51.0495C51.0498 50.644 55.194 48.701 58.3367 45.5581L69.3394 34.5554C71.1248 32.7938 72.5441 30.6964 73.5156 28.3839C74.487 26.0715 74.9915 23.5898 74.9999 21.0816C75.0083 18.5734 74.5205 16.0884 73.5645 13.7695C72.6086 11.4506 71.2033 9.34377 69.4298 7.57022C67.6562 5.79666 65.5494 4.39145 63.2305 3.43549C60.9116 2.47953 58.4266 1.9917 55.9184 2.00011C53.4102 2.00851 50.9285 2.51297 48.6161 3.48445C46.3037 4.45592 44.2063 5.87868 42.4447 7.66408Z" fill="#4284FF"/>
</g>
<defs>
<clipPath id="clip0_307_40657">
<rect width="80" height="80" fill="white"/>
</clipPath>
</defs>
</svg>
