<svg width="50" height="50" viewBox="0 0 50 50" fill="none" xmlns="http://www.w3.org/2000/svg">
<path d="M7 11.7177C7.00004 11.5397 7.05291 11.3656 7.15191 11.2176C7.25091 11.0695 7.39161 10.9542 7.55618 10.8862C7.72075 10.8182 7.9018 10.8005 8.07642 10.8354C8.25104 10.8703 8.41138 10.9563 8.53714 11.0823L19.3547 21.9002C19.5815 22.127 19.6607 22.4582 19.6247 22.7768C19.5367 23.5198 19.6825 24.2717 20.0416 24.928C20.4007 25.5844 20.9554 26.1125 21.6285 26.439C22.3017 26.7655 23.0598 26.8742 23.7976 26.7499C24.5354 26.6257 25.2161 26.2746 25.7451 25.7456C26.2741 25.2165 26.6252 24.5358 26.7494 23.798C26.8737 23.0602 26.7651 22.3021 26.4385 21.6289C26.112 20.9557 25.5839 20.401 24.9276 20.0419C24.2713 19.6828 23.5193 19.5371 22.7764 19.625C22.6194 19.6484 22.4591 19.6363 22.3074 19.5895C22.1558 19.5428 22.0165 19.4627 21.8998 19.355L11.0822 8.53718C10.9563 8.41152 10.8704 8.25135 10.8354 8.07689C10.8004 7.90243 10.8179 7.72152 10.8857 7.55702C10.9535 7.39252 11.0686 7.25181 11.2163 7.15266C11.3641 7.05352 11.5379 7.00039 11.7158 7H23.1994C25.8 6.99942 28.3625 7.62498 30.6703 8.82381C32.9782 10.0226 34.9635 11.7595 36.4584 13.8875C37.9533 16.0156 38.9139 18.4723 39.2591 21.05C39.6042 23.6276 39.3236 26.2505 38.4412 28.6969L42.473 32.727C42.8104 33.0646 43 33.5223 43 33.9996C43 34.4769 42.8104 34.9347 42.473 35.2722L35.2733 42.4721C35.1061 42.6394 34.9076 42.7722 34.6891 42.8628C34.4706 42.9534 34.2364 43 33.9998 43C33.7633 43 33.5291 42.9534 33.3106 42.8628C33.0921 42.7722 32.8936 42.6394 32.7264 42.4721L28.6963 38.4419C26.25 39.3244 23.6272 39.605 21.0496 39.2599C18.472 38.9147 16.0154 37.9541 13.8874 36.4591C11.7594 34.9642 10.0226 32.9788 8.82376 30.6709C7.62497 28.363 6.99942 25.8004 7 23.1998V11.7177Z" fill="#4284FF"/>
</svg>
