<svg width="32" height="32" viewBox="0 0 32 32" fill="none" xmlns="http://www.w3.org/2000/svg">
<path d="M13.3337 27.4253C8.76166 28.968 4.95233 27.4253 2.66699 22.668" stroke="#4284FF" stroke-width="2.2" stroke-linecap="round" stroke-linejoin="round"/>
<path d="M13.3337 29.3353V25.0127C13.3337 24.2153 13.579 23.522 13.9737 22.8953C14.2457 22.466 14.059 21.8553 13.5697 21.722C9.51233 20.6047 6.66699 18.8113 6.66699 12.862C6.66699 11.3153 7.17366 9.86199 8.06433 8.59532C8.28566 8.28066 8.39766 8.12332 8.42433 7.98199C8.45099 7.83799 8.40433 7.65266 8.31099 7.27932C7.93366 5.76466 7.95899 4.15532 8.52433 2.70599C8.52433 2.70599 9.69366 2.32332 12.3563 3.98599C12.9643 4.36599 13.2683 4.55666 13.5363 4.59932C13.8043 4.64199 14.1617 4.55266 14.8763 4.37399C15.8982 4.12065 16.9476 3.99569 18.0003 4.00199C19.053 3.99749 20.1023 4.12289 21.1243 4.37532C21.839 4.55399 22.1977 4.64199 22.4657 4.60066C22.7323 4.55799 23.0363 4.36732 23.6443 3.98732C26.307 2.32466 27.4763 2.70732 27.4763 2.70732C28.0417 4.15666 28.067 5.76599 27.6897 7.28066C27.5963 7.65399 27.551 7.84066 27.5777 7.98199C27.6043 8.12332 27.715 8.28199 27.9363 8.59666C28.827 9.86332 29.3337 11.3167 29.3337 12.8633C29.3337 18.8127 26.4883 20.606 22.431 21.7207C21.9417 21.8553 21.755 22.466 22.027 22.894C22.4217 23.5207 22.667 24.214 22.667 25.0127V29.3353" stroke="#4284FF" stroke-width="2.2" stroke-linecap="round" stroke-linejoin="round"/>
</svg>
